<svg xmlns="http://www.w3.org/2000/svg" version="1.1" xmlns:xlink="http://www.w3.org/1999/xlink" width="200" height="200"><svg xmlns="http://www.w3.org/2000/svg" version="1.1" xmlns:xlink="http://www.w3.org/1999/xlink" width="200" height="200"><svg xmlns="http://www.w3.org/2000/svg" version="1.1" xmlns:xlink="http://www.w3.org/1999/xlink" viewBox="0 0 200 200"><rect width="200" height="200" fill="url('#gradient')"></rect><defs><linearGradient id="gradient" gradientTransform="rotate(143 0.5 0.5)"><stop offset="0%" stop-color="#0ab5fa"></stop><stop offset="100%" stop-color="#fbf2d5"></stop></linearGradient></defs><g><g fill="#0a4e91" transform="matrix(2.1914396887159535,0,0,2.1914396887159535,20.64703203629889,116.21899699199989)" stroke="#0c325a" stroke-width="0.2"><path d="M9.89-8.57L9.89-6.03L4.50-6.03L4.50-2.64L10.87-2.64L10.87 0L1.07 0L1.07-14.22L10.89-14.22L10.89-11.57L4.50-11.57L4.50-8.57L9.89-8.57ZM11.51-5.36L11.51-5.36Q11.51-7.87 12.60-9.32Q13.68-10.76 15.63-10.76L15.63-10.76Q17.04-10.76 18.01-9.65L18.01-9.65L18.01-15L21.31-15L21.31 0L18.35 0L18.18-1.13Q17.17 0.20 15.61 0.20L15.61 0.20Q13.72 0.20 12.62-1.25Q11.51-2.70 11.51-5.36ZM14.81-5.76L14.80-5.16Q14.80-2.34 16.45-2.34L16.45-2.34Q17.54-2.34 18.01-3.26L18.01-3.26L18.01-7.29Q17.56-8.22 16.46-8.22L16.46-8.22Q14.94-8.22 14.81-5.76L14.81-5.76ZM29.57 0L29.47-1.14Q28.43 0.20 26.65 0.20L26.65 0.20Q24.91 0.20 24.02-0.82Q23.13-1.83 23.13-3.72L23.13-3.72L23.13-10.57L26.42-10.57L26.42-3.70Q26.42-2.34 27.73-2.34L27.73-2.34Q28.87-2.34 29.35-3.15L29.35-3.15L29.35-10.57L32.66-10.57L32.66 0L29.57 0ZM42.71-4.81L46.11-4.81Q46.04-3.33 45.31-2.19Q44.58-1.05 43.26-0.43Q41.93 0.20 40.23 0.20L40.23 0.20Q37.43 0.20 35.82-1.63Q34.21-3.46 34.21-6.79L34.21-6.79L34.21-7.49Q34.21-9.58 34.94-11.15Q35.66-12.71 37.03-13.57Q38.40-14.42 40.20-14.42L40.20-14.42Q42.78-14.42 44.36-13.06Q45.93-11.70 46.14-9.31L46.14-9.31L42.72-9.31Q42.69-10.61 42.07-11.17Q41.46-11.74 40.20-11.74L40.20-11.74Q38.92-11.74 38.32-10.78Q37.72-9.82 37.70-7.72L37.70-7.72L37.70-6.72Q37.70-4.44 38.27-3.47Q38.84-2.49 40.23-2.49L40.23-2.49Q41.42-2.49 42.04-3.05Q42.67-3.60 42.71-4.81L42.71-4.81ZM56.64 0L55.81-2.66L51.11-2.66L50.29 0L46.63 0L51.85-14.22L55.07-14.22L60.32 0L56.64 0ZM53.46-10.23L51.93-5.30L54.99-5.30L53.46-10.23ZM71.35-14.22L71.35-11.57L67.08-11.57L67.08 0L63.65 0L63.65-11.57L59.46-11.57L59.46-14.22L71.35-14.22Z"></path></g></g></svg></svg><style>@media (prefers-color-scheme: light) { :root { filter: none; } }
@media (prefers-color-scheme: dark) { :root { filter: none; } }
</style></svg>