<svg xmlns="http://www.w3.org/2000/svg" version="1.1" xmlns:xlink="http://www.w3.org/1999/xlink" width="200" height="200"><svg xmlns="http://www.w3.org/2000/svg" version="1.1" xmlns:xlink="http://www.w3.org/1999/xlink" viewBox="0 0 200 200"><rect width="200" height="200" fill="url('#gradient')"></rect><defs><linearGradient id="SvgjsLinearGradient1001" gradientTransform="rotate(45 0.5 0.5)"><stop offset="0%" stop-color="#3526e0"></stop><stop offset="100%" stop-color="#4b9982"></stop></linearGradient></defs><g><g fill="#32ddd4" transform="matrix(1.3491436100131753,0,0,1.3491436100131753,8.551843289644196,109.98600633090977)" stroke="#5bcad4" stroke-width="0.2"><path d="M9.89-8.57L9.89-6.03L4.50-6.03L4.50-2.64L10.87-2.64L10.87 0L1.07 0L1.07-14.22L10.89-14.22L10.89-11.57L4.50-11.57L4.50-8.57L9.89-8.57ZM11.51-5.36L11.51-5.36Q11.51-7.87 12.60-9.32Q13.68-10.76 15.63-10.76L15.63-10.76Q17.04-10.76 18.01-9.65L18.01-9.65L18.01-15L21.31-15L21.31 0L18.35 0L18.18-1.13Q17.17 0.20 15.61 0.20L15.61 0.20Q13.72 0.20 12.62-1.25Q11.51-2.70 11.51-5.36ZM14.81-5.76L14.80-5.16Q14.80-2.34 16.45-2.34L16.45-2.34Q17.54-2.34 18.01-3.26L18.01-3.26L18.01-7.29Q17.56-8.22 16.46-8.22L16.46-8.22Q14.94-8.22 14.81-5.76L14.81-5.76ZM29.57 0L29.47-1.14Q28.43 0.20 26.65 0.20L26.65 0.20Q24.91 0.20 24.02-0.82Q23.13-1.83 23.13-3.72L23.13-3.72L23.13-10.57L26.42-10.57L26.42-3.70Q26.42-2.34 27.73-2.34L27.73-2.34Q28.87-2.34 29.35-3.15L29.35-3.15L29.35-10.57L32.66-10.57L32.66 0L29.57 0ZM40.22-4.82L38.04-4.82L38.04 0L34.61 0L34.61-14.22L40.28-14.22Q41.91-14.22 43.17-13.62Q44.42-13.02 45.11-11.91Q45.80-10.80 45.80-9.39L45.80-9.39Q45.80-7.31 44.31-6.07Q42.82-4.82 40.22-4.82L40.22-4.82ZM38.04-11.57L38.04-7.47L40.28-7.47Q41.28-7.47 41.80-7.97Q42.32-8.47 42.32-9.38L42.32-9.38Q42.32-10.37 41.79-10.97Q41.25-11.56 40.32-11.57L40.32-11.57L38.04-11.57ZM50.95-15L50.95 0L47.65 0L47.65-15L50.95-15ZM62.22 0L58.93 0Q58.75-0.32 58.61-0.95L58.61-0.95Q57.71 0.20 56.07 0.20L56.07 0.20Q54.58 0.20 53.54-0.71Q52.49-1.61 52.49-2.98L52.49-2.98Q52.49-4.70 53.76-5.58Q55.03-6.46 57.45-6.46L57.45-6.46L58.47-6.46L58.47-7.01Q58.47-8.47 57.21-8.47L57.21-8.47Q56.04-8.47 56.04-7.31L56.04-7.31L52.74-7.31Q52.74-8.85 54.05-9.80Q55.35-10.76 57.37-10.76Q59.39-10.76 60.57-9.78Q61.74-8.79 61.77-7.07L61.77-7.07L61.77-2.39Q61.79-0.94 62.22-0.17L62.22-0.17L62.22 0ZM56.87-2.15L56.87-2.15Q57.48-2.15 57.89-2.41Q58.29-2.68 58.47-3.01L58.47-3.01L58.47-4.70L57.51-4.70Q55.79-4.70 55.79-3.15L55.79-3.15Q55.79-2.71 56.09-2.43Q56.40-2.15 56.87-2.15ZM63.53-10.57L66.61-10.57L66.72-9.33Q67.81-10.76 69.74-10.76L69.74-10.76Q71.39-10.76 72.20-9.78Q73.02-8.79 73.05-6.81L73.05-6.81L73.05 0L69.75 0L69.75-6.67Q69.75-7.47 69.42-7.85Q69.10-8.22 68.25-8.22L68.25-8.22Q67.29-8.22 66.82-7.46L66.82-7.46L66.82 0L63.53 0L63.53-10.57ZM79.98 0.20L79.98 0.20Q77.55 0.20 76.04-1.25Q74.54-2.71 74.54-5.03L74.54-5.03L74.54-5.30Q74.54-6.92 75.14-8.16Q75.74-9.40 76.89-10.08Q78.05-10.76 79.63-10.76L79.63-10.76Q81.86-10.76 83.14-9.38Q84.43-8.00 84.43-5.53L84.43-5.53L84.43-4.25L77.89-4.25Q78.07-3.36 78.66-2.85Q79.26-2.34 80.21-2.34L80.21-2.34Q81.77-2.34 82.65-3.44L82.65-3.44L84.15-1.66Q83.54-0.81 82.41-0.31Q81.28 0.20 79.98 0.20ZM79.61-8.22L79.61-8.22Q78.16-8.22 77.89-6.31L77.89-6.31L81.21-6.31L81.21-6.56Q81.23-7.35 80.81-7.79Q80.39-8.22 79.61-8.22ZM86.30-13.19L89.59-13.19L89.59-10.57L91.33-10.57L91.33-8.28L89.59-8.28L89.59-3.45Q89.59-2.85 89.80-2.62Q90.02-2.38 90.65-2.38L90.65-2.38Q91.14-2.38 91.47-2.44L91.47-2.44L91.47-0.09Q90.59 0.20 89.62 0.20L89.62 0.20Q87.92 0.20 87.11-0.61Q86.30-1.41 86.30-3.04L86.30-3.04L86.30-8.28L84.95-8.28L84.95-10.57L86.30-10.57L86.30-13.19ZM105.85-4.81L109.26-4.81Q109.19-3.33 108.46-2.19Q107.72-1.05 106.40-0.43Q105.08 0.20 103.38 0.20L103.38 0.20Q100.58 0.20 98.96-1.63Q97.35-3.46 97.35-6.79L97.35-6.79L97.35-7.49Q97.35-9.58 98.08-11.15Q98.81-12.71 100.18-13.57Q101.54-14.42 103.34-14.42L103.34-14.42Q105.93-14.42 107.50-13.06Q109.07-11.70 109.29-9.31L109.29-9.31L105.87-9.31Q105.83-10.61 105.21-11.17Q104.60-11.74 103.34-11.74L103.34-11.74Q102.06-11.74 101.46-10.78Q100.87-9.82 100.84-7.72L100.84-7.72L100.84-6.72Q100.84-4.44 101.41-3.47Q101.98-2.49 103.38-2.49L103.38-2.49Q104.56-2.49 105.19-3.05Q105.81-3.60 105.85-4.81L105.85-4.81ZM119.79 0L118.96-2.66L114.26-2.66L113.44 0L109.78 0L114.99-14.22L118.21-14.22L123.47 0L119.79 0ZM116.60-10.23L115.08-5.30L118.13-5.30L116.60-10.23ZM134.49-14.22L134.49-11.57L130.22-11.57L130.22 0L126.80 0L126.80-11.57L122.61-11.57L122.61-14.22L134.49-14.22Z"></path></g></g></svg><style>@media (prefers-color-scheme: light) { :root { filter: none; } }
@media (prefers-color-scheme: dark) { :root { filter: none; } }
</style></svg>